<?xml version="1.0" encoding="UTF-8" standalone="no"?><!DOCTYPE svg PUBLIC "-//W3C//DTD SVG 1.1//EN" "http://www.w3.org/Graphics/SVG/1.1/DTD/svg11.dtd"><svg width="100%" height="100%" viewBox="0 0 19 16" version="1.1" xmlns="http://www.w3.org/2000/svg" xmlns:xlink="http://www.w3.org/1999/xlink" xml:space="preserve" xmlns:serif="http://www.serif.com/" style="fill-rule:evenodd;clip-rule:evenodd;stroke-linejoin:round;stroke-miterlimit:1.41421;"><path d="M18.016,6.912l0.03,8.097c-1.094,1.32 -2.095,1.106 -2.99,-0.052l-0.022,-1.005l-11.89,0.017l-0.013,1.012c-1.038,1.253 -2.064,1.296 -3.076,-0.001l-0.055,-8.068l2.749,-6.912l12.463,0l2.804,6.912Zm-14.441,0.996c0.813,0 1.474,0.66 1.474,1.474c0,0.814 -0.661,1.475 -1.474,1.475c-0.814,0 -1.475,-0.661 -1.475,-1.475c0,-0.814 0.661,-1.474 1.475,-1.474Zm10.959,0c0.814,0 1.474,0.66 1.474,1.474c0,0.814 -0.66,1.475 -1.474,1.475c-0.814,0 -1.475,-0.661 -1.475,-1.475c0,-0.814 0.661,-1.474 1.475,-1.474Zm-0.258,-7.022l-10.571,0l-1.971,5.14l14.52,0l-1.978,-5.14Z" style="fill:#fff;"/></svg>