<?xml version="1.0" encoding="UTF-8" standalone="no"?><!DOCTYPE svg PUBLIC "-//W3C//DTD SVG 1.1//EN" "http://www.w3.org/Graphics/SVG/1.1/DTD/svg11.dtd"><svg width="100%" height="100%" viewBox="0 0 14 23" version="1.1" xmlns="http://www.w3.org/2000/svg" xmlns:xlink="http://www.w3.org/1999/xlink" xml:space="preserve" xmlns:serif="http://www.serif.com/" style="fill-rule:evenodd;clip-rule:evenodd;stroke-linejoin:round;stroke-miterlimit:1.41421;"><path d="M8.356,9.945l-1.431,-1.074l-0.497,2.941l0.567,0.435l2.181,3.008l-0.107,6.845l-1.974,-0.127l-0.131,-5.197l-2.363,-2.527l-0.73,1.758l-1.769,5.845l-2.036,0.103l-0.066,-1.959l2.353,-6.812l1.317,-5.755l-1.024,-0.607l-0.863,0.794l0.293,2.828l-1.975,0.57l-0.015,-5.225l1.417,-0.494l2.561,-0.922l1.502,-0.48l1.782,0.673l0.801,1.842l1.728,1.589l3.059,0.125l0.717,0.814l-0.205,0.974l-5.092,0.035Z" style="fill:#fff;"/><ellipse cx="8.094" cy="1.947" rx="1.981" ry="1.947" style="fill:#fff;"/></svg>